

<svg width="100%" viewBox="0 0 680 620" role="img" xmlns="http://www.w3.org/2000/svg">
<title>LogRhythm Lab — Architecture spécifique</title>
<desc>Diagramme de l'architecture du lab LogRhythm SIEM montrant la machine cible et la plateforme LogRhythm avec les flux de données.</desc>
<defs>
  <marker id="arrow" viewBox="0 0 10 10" refX="8" refY="5" markerWidth="6" markerHeight="6" orient="auto-start-reverse">
    <path d="M2 1L8 5L2 9" fill="none" stroke="context-stroke" stroke-width="1.5" stroke-linecap="round" stroke-linejoin="round"/>
  </marker>
</defs>

<!-- TARGET MACHINE -->
<rect x="18" y="12" width="644" height="128" rx="10" fill="#1a2a3a" stroke="#4A90D9" stroke-width="1.5" stroke-dasharray="5 3"/>
<text x="30" y="30" font-family="sans-serif" font-size="11" font-weight="600" fill="#4A90D9">🖥  Target Machine — Monitored Endpoint</text>

<rect x="32" y="40" width="148" height="88" rx="7" fill="#0f1e2e" stroke="#4A90D9" stroke-width="1"/>
<text x="106" y="62" text-anchor="middle" font-family="sans-serif" font-size="11" font-weight="600" fill="#B5D4F4">Auth Logs · CSV</text>
<text x="106" y="79" text-anchor="middle" font-family="sans-serif" font-size="9.5" fill="#7aaacc">Generate-EnrichedAuth</text>
<text x="106" y="92" text-anchor="middle" font-family="sans-serif" font-size="9.5" fill="#7aaacc">Logs.ps1</text>
<text x="106" y="110" text-anchor="middle" font-family="sans-serif" font-size="9" fill="#4A90D9">log ingestion ↓</text>

<rect x="266" y="40" width="148" height="88" rx="7" fill="#0f1e2e" stroke="#4A90D9" stroke-width="1"/>
<text x="340" y="62" text-anchor="middle" font-family="sans-serif" font-size="11" font-weight="600" fill="#B5D4F4">Firewall Logs · JSON</text>
<text x="340" y="79" text-anchor="middle" font-family="sans-serif" font-size="9.5" fill="#7aaacc">Generate-FirewallLogs</text>
<text x="340" y="92" text-anchor="middle" font-family="sans-serif" font-size="9.5" fill="#7aaacc">-JSON.ps1</text>
<text x="340" y="110" text-anchor="middle" font-family="sans-serif" font-size="9" fill="#4A90D9">log ingestion ↓</text>

<rect x="500" y="40" width="148" height="88" rx="7" fill="#0f1e2e" stroke="#4A90D9" stroke-width="1"/>
<text x="574" y="60" text-anchor="middle" font-family="sans-serif" font-size="11" font-weight="600" fill="#B5D4F4">System Monitor Agent</text>
<text x="574" y="77" text-anchor="middle" font-family="sans-serif" font-size="9.5" fill="#7aaacc">FIM: C:\FIM_TEST\</text>
<text x="574" y="94" text-anchor="middle" font-family="sans-serif" font-size="9.5" fill="#7aaacc">Generate-FIM-Activity</text>
<text x="574" y="107" text-anchor="middle" font-family="sans-serif" font-size="9.5" fill="#7aaacc">.ps1</text>

<!-- LOGRHYTHM PLATFORM -->
<rect x="18" y="170" width="644" height="420" rx="10" fill="#111b26" stroke="#2a5580" stroke-width="1.5" stroke-dasharray="5 3"/>
<text x="30" y="190" font-family="sans-serif" font-size="11" font-weight="600" fill="#4A90D9">⚙  LogRhythm Platform — LR-XMVS_MACHINE</text>

<rect x="252" y="202" width="176" height="60" rx="7" fill="#183050" stroke="#4A90D9" stroke-width="1.2"/>
<text x="340" y="225" text-anchor="middle" font-family="sans-serif" font-size="12" font-weight="700" fill="#e8f4ff">Data Processor</text>
<text x="340" y="243" text-anchor="middle" font-family="sans-serif" font-size="9.5" fill="#7aaacc">MPE · CEF Normalization</text>

<rect x="32" y="310" width="152" height="56" rx="7" fill="#183050" stroke="#4A90D9" stroke-width="1"/>
<text x="108" y="333" text-anchor="middle" font-family="sans-serif" font-size="11" font-weight="600" fill="#e8f4ff">Platform Manager</text>
<text x="108" y="350" text-anchor="middle" font-family="sans-serif" font-size="9.5" fill="#7aaacc">RBAC · Web Console</text>

<rect x="200" y="310" width="152" height="56" rx="7" fill="#183050" stroke="#4A90D9" stroke-width="1"/>
<text x="276" y="333" text-anchor="middle" font-family="sans-serif" font-size="11" font-weight="600" fill="#e8f4ff">Data Indexer</text>
<text x="276" y="350" text-anchor="middle" font-family="sans-serif" font-size="9.5" fill="#7aaacc">Storage · Search</text>

<rect x="370" y="310" width="152" height="56" rx="7" fill="#183050" stroke="#4A90D9" stroke-width="1.2"/>
<text x="446" y="333" text-anchor="middle" font-family="sans-serif" font-size="11" font-weight="600" fill="#e8f4ff">AI Engine</text>
<text x="446" y="350" text-anchor="middle" font-family="sans-serif" font-size="9.5" fill="#7aaacc">Correlation · Detection</text>

<rect x="526" y="202" width="124" height="155" rx="7" fill="#0d1e30" stroke="#2a6090" stroke-width="1" stroke-dasharray="4 2"/>
<text x="588" y="220" text-anchor="middle" font-family="sans-serif" font-size="9.5" font-weight="600" fill="#6aaad4">Custom Log Sources</text>

<rect x="534" y="228" width="108" height="48" rx="5" fill="#162840" stroke="#2a6090" stroke-width="0.8"/>
<text x="588" y="245" text-anchor="middle" font-family="sans-serif" font-size="9.5" font-weight="600" fill="#B5D4F4">CSV Log Source</text>
<text x="588" y="260" text-anchor="middle" font-family="sans-serif" font-size="8.5" fill="#5a8caa">Auth events · mapping</text>

<rect x="534" y="292" width="108" height="48" rx="5" fill="#162840" stroke="#2a6090" stroke-width="0.8"/>
<text x="588" y="309" text-anchor="middle" font-family="sans-serif" font-size="9.5" font-weight="600" fill="#B5D4F4">JSON Log Source</text>
<text x="588" y="324" text-anchor="middle" font-family="sans-serif" font-size="8.5" fill="#5a8caa">Firewall events · mapping</text>

<!-- AI ENGINE ALARMS -->
<rect x="32" y="400" width="220" height="148" rx="7" fill="#1a1010" stroke="#c0392b" stroke-width="1" stroke-dasharray="4 2"/>
<text x="142" y="418" text-anchor="middle" font-family="sans-serif" font-size="9.5" font-weight="600" fill="#e74c3c">AI Engine Alarms</text>

<rect x="42" y="426" width="200" height="50" rx="5" fill="#2c1010" stroke="#c0392b" stroke-width="0.8"/>
<text x="52" y="444" font-family="sans-serif" font-size="9.5" font-weight="600" fill="#ff6b5b">🔴 Brute Force — T1110</text>
<text x="52" y="459" font-family="sans-serif" font-size="8.5" fill="#cc7777">≥5 failed logins / 10 min</text>

<rect x="42" y="488" width="200" height="50" rx="5" fill="#2c1c10" stroke="#e67e22" stroke-width="0.8"/>
<text x="52" y="506" font-family="sans-serif" font-size="9.5" font-weight="600" fill="#f39c12">🟠 After-Hours — T1005</text>
<text x="52" y="521" font-family="sans-serif" font-size="8.5" fill="#cc9955">time-based correlation filter</text>

<!-- FIM ALARMS -->
<rect x="270" y="400" width="220" height="148" rx="7" fill="#0f1e10" stroke="#27ae60" stroke-width="1" stroke-dasharray="4 2"/>
<text x="380" y="418" text-anchor="middle" font-family="sans-serif" font-size="9.5" font-weight="600" fill="#27ae60">FIM Alarms — T1565</text>

<rect x="280" y="426" width="200" height="32" rx="5" fill="#152015" stroke="#27ae60" stroke-width="0.7"/>
<text x="380" y="447" text-anchor="middle" font-family="sans-serif" font-size="9.5" fill="#58d68d">📁 File Added</text>

<rect x="280" y="466" width="200" height="32" rx="5" fill="#152015" stroke="#f39c12" stroke-width="0.7"/>
<text x="380" y="487" text-anchor="middle" font-family="sans-serif" font-size="9.5" fill="#f5cba7">✏ File Modified</text>

<rect x="280" y="506" width="200" height="32" rx="5" fill="#152015" stroke="#e74c3c" stroke-width="0.7"/>
<text x="380" y="527" text-anchor="middle" font-family="sans-serif" font-size="9.5" fill="#f1948a">🗑 File Deleted</text>

<!-- GRAFANA -->
<rect x="508" y="400" width="142" height="148" rx="7" fill="#1c1400" stroke="#e67e22" stroke-width="1.2"/>
<text x="579" y="426" text-anchor="middle" font-family="sans-serif" font-size="11" font-weight="700" fill="#f39c12">📊 Grafana</text>
<text x="579" y="444" text-anchor="middle" font-family="sans-serif" font-size="9" fill="#cc9955">Platform Health</text>
<text x="579" y="460" text-anchor="middle" font-family="sans-serif" font-size="9" fill="#cc9955">EPS · Component Status</text>
<text x="579" y="476" text-anchor="middle" font-family="sans-serif" font-size="9" fill="#cc9955">Alarm Rate</text>

<!-- ARROWS -->
<line x1="106" y1="128" x2="106" y2="160" stroke="#4A90D9" stroke-width="1.2" marker-end="url(#arrow)"/>
<line x1="106" y1="160" x2="310" y2="202" stroke="#4A90D9" stroke-width="1.2" marker-end="url(#arrow)"/>
<line x1="340" y1="128" x2="340" y2="202" stroke="#4A90D9" stroke-width="1.2" marker-end="url(#arrow)"/>
<line x1="574" y1="128" x2="574" y2="158" stroke="#27ae60" stroke-width="1.2"/>
<line x1="574" y1="158" x2="446" y2="310" stroke="#27ae60" stroke-width="1.2" marker-end="url(#arrow)"/>
<line x1="290" y1="262" x2="180" y2="310" stroke="#4A90D9" stroke-width="1" marker-end="url(#arrow)"/>
<line x1="320" y1="262" x2="310" y2="310" stroke="#4A90D9" stroke-width="1" marker-end="url(#arrow)"/>
<line x1="390" y1="262" x2="430" y2="310" stroke="#4A90D9" stroke-width="1" marker-end="url(#arrow)"/>
<line x1="428" y1="232" x2="534" y2="252" stroke="#2a6090" stroke-width="1" stroke-dasharray="4 2" marker-end="url(#arrow)"/>
<line x1="428" y1="240" x2="534" y2="316" stroke="#2a6090" stroke-width="1" stroke-dasharray="4 2" marker-end="url(#arrow)"/>
<line x1="420" y1="366" x2="240" y2="400" stroke="#c0392b" stroke-width="1" stroke-dasharray="4 2" marker-end="url(#arrow)"/>
<line x1="446" y1="366" x2="446" y2="400" stroke="#27ae60" stroke-width="1" stroke-dasharray="4 2" marker-end="url(#arrow)"/>
<line x1="560" y1="350" x2="560" y2="400" stroke="#e67e22" stroke-width="1" stroke-dasharray="4 2" marker-end="url(#arrow)"/>

<!-- FIM events label -->
<rect x="490" y="145" width="66" height="16" rx="3" fill="#111b26"/>
<text x="523" y="156" text-anchor="middle" font-family="sans-serif" font-size="8.5" fill="#58d68d">FIM events</text>

</svg>

